<svg width="225" height="225" viewBox="0 0 225 225" fill="none" xmlns="https://www.w3.org/2000/svg">
<rect width="4" height="4" rx="2" fill="#C4B7F2"/>
<rect x="17" width="4" height="4" rx="2" fill="#C4B7F2"/>
<rect x="34" width="4" height="4" rx="2" fill="#C4B7F2"/>
<rect x="51" width="4" height="4" rx="2" fill="#C4B7F2"/>
<rect x="68" width="4" height="4" rx="2" fill="#C4B7F2"/>
<rect x="85" width="4" height="4" rx="2" fill="#C4B7F2"/>
<rect x="102" width="4" height="4" rx="2" fill="#C4B7F2"/>
<rect x="119" width="4" height="4" rx="2" fill="#C4B7F2"/>
<rect x="136" width="4" height="4" rx="2" fill="#C4B7F2"/>
<rect x="153" width="4" height="4" rx="2" fill="#C4B7F2"/>
<rect x="170" width="4" height="4" rx="2" fill="#C4B7F2"/>
<rect x="187" width="4" height="4" rx="2" fill="#C4B7F2"/>
<rect y="17" width="4" height="4" rx="2" fill="#C4B7F2"/>
<rect x="17" y="17" width="4" height="4" rx="2" fill="#C4B7F2"/>
<rect x="34" y="17" width="4" height="4" rx="2" fill="#C4B7F2"/>
<rect x="51" y="17" width="4" height="4" rx="2" fill="#C4B7F2"/>
<rect x="68" y="17" width="4" height="4" rx="2" fill="#C4B7F2"/>
<rect x="85" y="17" width="4" height="4" rx="2" fill="#C4B7F2"/>
<rect x="102" y="17" width="4" height="4" rx="2" fill="#C4B7F2"/>
<rect x="119" y="17" width="4" height="4" rx="2" fill="#C4B7F2"/>
<rect x="136" y="17" width="4" height="4" rx="2" fill="#C4B7F2"/>
<rect x="153" y="17" width="4" height="4" rx="2" fill="#C4B7F2"/>
<rect x="170" y="17" width="4" height="4" rx="2" fill="#C4B7F2"/>
<rect x="187" y="17" width="4" height="4" rx="2" fill="#C4B7F2"/>
<rect y="34" width="4" height="4" rx="2" fill="#C4B7F2"/>
<rect x="17" y="34" width="4" height="4" rx="2" fill="#C4B7F2"/>
<rect x="34" y="34" width="4" height="4" rx="2" fill="#C4B7F2"/>
<rect x="51" y="34" width="4" height="4" rx="2" fill="#C4B7F2"/>
<rect x="68" y="34" width="4" height="4" rx="2" fill="#C4B7F2"/>
<rect x="85" y="34" width="4" height="4" rx="2" fill="#C4B7F2"/>
<rect x="102" y="34" width="4" height="4" rx="2" fill="#C4B7F2"/>
<rect x="119" y="34" width="4" height="4" rx="2" fill="#C4B7F2"/>
<rect x="136" y="34" width="4" height="4" rx="2" fill="#C4B7F2"/>
<rect x="153" y="34" width="4" height="4" rx="2" fill="#C4B7F2"/>
<rect x="170" y="34" width="4" height="4" rx="2" fill="#C4B7F2"/>
<rect x="187" y="34" width="4" height="4" rx="2" fill="#C4B7F2"/>
<rect y="51" width="4" height="4" rx="2" fill="#C4B7F2"/>
<rect x="17" y="51" width="4" height="4" rx="2" fill="#C4B7F2"/>
<rect x="34" y="51" width="4" height="4" rx="2" fill="#C4B7F2"/>
<rect x="51" y="51" width="4" height="4" rx="2" fill="#C4B7F2"/>
<rect x="68" y="51" width="4" height="4" rx="2" fill="#C4B7F2"/>
<rect x="85" y="51" width="4" height="4" rx="2" fill="#C4B7F2"/>
<rect x="102" y="51" width="4" height="4" rx="2" fill="#C4B7F2"/>
<rect x="119" y="51" width="4" height="4" rx="2" fill="#C4B7F2"/>
<rect x="136" y="51" width="4" height="4" rx="2" fill="#C4B7F2"/>
<rect x="153" y="51" width="4" height="4" rx="2" fill="#C4B7F2"/>
<rect x="170" y="51" width="4" height="4" rx="2" fill="#C4B7F2"/>
<rect x="187" y="51" width="4" height="4" rx="2" fill="#C4B7F2"/>
<rect y="68" width="4" height="4" rx="2" fill="#C4B7F2"/>
<rect x="17" y="68" width="4" height="4" rx="2" fill="#C4B7F2"/>
<rect x="34" y="68" width="4" height="4" rx="2" fill="#C4B7F2"/>
<rect x="51" y="68" width="4" height="4" rx="2" fill="#C4B7F2"/>
<rect x="68" y="68" width="4" height="4" rx="2" fill="#C4B7F2"/>
<rect x="85" y="68" width="4" height="4" rx="2" fill="#C4B7F2"/>
<rect x="102" y="68" width="4" height="4" rx="2" fill="#C4B7F2"/>
<rect x="119" y="68" width="4" height="4" rx="2" fill="#C4B7F2"/>
<rect x="136" y="68" width="4" height="4" rx="2" fill="#C4B7F2"/>
<rect x="153" y="68" width="4" height="4" rx="2" fill="#C4B7F2"/>
<rect x="170" y="68" width="4" height="4" rx="2" fill="#C4B7F2"/>
<rect x="187" y="68" width="4" height="4" rx="2" fill="#C4B7F2"/>
<rect y="85" width="4" height="4" rx="2" fill="#C4B7F2"/>
<rect x="17" y="85" width="4" height="4" rx="2" fill="#C4B7F2"/>
<rect x="34" y="85" width="4" height="4" rx="2" fill="#C4B7F2"/>
<rect x="51" y="85" width="4" height="4" rx="2" fill="#C4B7F2"/>
<rect x="68" y="85" width="4" height="4" rx="2" fill="#C4B7F2"/>
<rect x="85" y="85" width="4" height="4" rx="2" fill="#C4B7F2"/>
<rect x="102" y="85" width="4" height="4" rx="2" fill="#C4B7F2"/>
<rect x="119" y="85" width="4" height="4" rx="2" fill="#C4B7F2"/>
<rect x="136" y="85" width="4" height="4" rx="2" fill="#C4B7F2"/>
<rect x="153" y="85" width="4" height="4" rx="2" fill="#C4B7F2"/>
<rect x="170" y="85" width="4" height="4" rx="2" fill="#C4B7F2"/>
<rect x="187" y="85" width="4" height="4" rx="2" fill="#C4B7F2"/>
<rect y="102" width="4" height="4" rx="2" fill="#C4B7F2"/>
<rect x="17" y="102" width="4" height="4" rx="2" fill="#C4B7F2"/>
<rect x="34" y="102" width="4" height="4" rx="2" fill="#C4B7F2"/>
<rect x="51" y="102" width="4" height="4" rx="2" fill="#C4B7F2"/>
<rect x="68" y="102" width="4" height="4" rx="2" fill="#C4B7F2"/>
<rect x="85" y="102" width="4" height="4" rx="2" fill="#C4B7F2"/>
<rect x="102" y="102" width="4" height="4" rx="2" fill="#C4B7F2"/>
<rect x="119" y="102" width="4" height="4" rx="2" fill="#C4B7F2"/>
<rect x="136" y="102" width="4" height="4" rx="2" fill="#C4B7F2"/>
<rect x="153" y="102" width="4" height="4" rx="2" fill="#C4B7F2"/>
<rect x="170" y="102" width="4" height="4" rx="2" fill="#C4B7F2"/>
<rect x="187" y="102" width="4" height="4" rx="2" fill="#C4B7F2"/>
<rect y="119" width="4" height="4" rx="2" fill="#C4B7F2"/>
<rect x="17" y="119" width="4" height="4" rx="2" fill="#C4B7F2"/>
<rect x="34" y="119" width="4" height="4" rx="2" fill="#C4B7F2"/>
<rect x="51" y="119" width="4" height="4" rx="2" fill="#C4B7F2"/>
<rect x="68" y="119" width="4" height="4" rx="2" fill="#C4B7F2"/>
<rect x="85" y="119" width="4" height="4" rx="2" fill="#C4B7F2"/>
<rect x="102" y="119" width="4" height="4" rx="2" fill="#C4B7F2"/>
<rect x="119" y="119" width="4" height="4" rx="2" fill="#C4B7F2"/>
<rect x="136" y="119" width="4" height="4" rx="2" fill="#C4B7F2"/>
<rect x="153" y="119" width="4" height="4" rx="2" fill="#C4B7F2"/>
<rect x="170" y="119" width="4" height="4" rx="2" fill="#C4B7F2"/>
<rect x="187" y="119" width="4" height="4" rx="2" fill="#C4B7F2"/>
<rect y="136" width="4" height="4" rx="2" fill="#C4B7F2"/>
<rect x="17" y="136" width="4" height="4" rx="2" fill="#C4B7F2"/>
<rect x="34" y="136" width="4" height="4" rx="2" fill="#C4B7F2"/>
<rect x="51" y="136" width="4" height="4" rx="2" fill="#C4B7F2"/>
<rect x="68" y="136" width="4" height="4" rx="2" fill="#C4B7F2"/>
<rect x="85" y="136" width="4" height="4" rx="2" fill="#C4B7F2"/>
<rect x="102" y="136" width="4" height="4" rx="2" fill="#C4B7F2"/>
<rect x="119" y="136" width="4" height="4" rx="2" fill="#C4B7F2"/>
<rect x="136" y="136" width="4" height="4" rx="2" fill="#C4B7F2"/>
<rect x="153" y="136" width="4" height="4" rx="2" fill="#C4B7F2"/>
<rect x="170" y="136" width="4" height="4" rx="2" fill="#C4B7F2"/>
<rect x="187" y="136" width="4" height="4" rx="2" fill="#C4B7F2"/>
<rect y="153" width="4" height="4" rx="2" fill="#C4B7F2"/>
<rect x="17" y="153" width="4" height="4" rx="2" fill="#C4B7F2"/>
<rect x="34" y="153" width="4" height="4" rx="2" fill="#C4B7F2"/>
<rect x="51" y="153" width="4" height="4" rx="2" fill="#C4B7F2"/>
<rect x="68" y="153" width="4" height="4" rx="2" fill="#C4B7F2"/>
<rect x="85" y="153" width="4" height="4" rx="2" fill="#C4B7F2"/>
<rect x="102" y="153" width="4" height="4" rx="2" fill="#C4B7F2"/>
<rect x="119" y="153" width="4" height="4" rx="2" fill="#C4B7F2"/>
<rect x="136" y="153" width="4" height="4" rx="2" fill="#C4B7F2"/>
<rect x="153" y="153" width="4" height="4" rx="2" fill="#C4B7F2"/>
<rect x="170" y="153" width="4" height="4" rx="2" fill="#C4B7F2"/>
<rect x="187" y="153" width="4" height="4" rx="2" fill="#C4B7F2"/>
<rect y="170" width="4" height="4" rx="2" fill="#C4B7F2"/>
<rect x="17" y="170" width="4" height="4" rx="2" fill="#C4B7F2"/>
<rect x="34" y="170" width="4" height="4" rx="2" fill="#C4B7F2"/>
<rect x="51" y="170" width="4" height="4" rx="2" fill="#C4B7F2"/>
<rect x="68" y="170" width="4" height="4" rx="2" fill="#C4B7F2"/>
<rect x="85" y="170" width="4" height="4" rx="2" fill="#C4B7F2"/>
<rect x="102" y="170" width="4" height="4" rx="2" fill="#C4B7F2"/>
<rect x="119" y="170" width="4" height="4" rx="2" fill="#C4B7F2"/>
<rect x="136" y="170" width="4" height="4" rx="2" fill="#C4B7F2"/>
<rect x="153" y="170" width="4" height="4" rx="2" fill="#C4B7F2"/>
<rect x="170" y="170" width="4" height="4" rx="2" fill="#C4B7F2"/>
<rect x="187" y="170" width="4" height="4" rx="2" fill="#C4B7F2"/>
<rect y="187" width="4" height="4" rx="2" fill="#C4B7F2"/>
<rect x="17" y="187" width="4" height="4" rx="2" fill="#C4B7F2"/>
<rect x="34" y="187" width="4" height="4" rx="2" fill="#C4B7F2"/>
<rect x="51" y="187" width="4" height="4" rx="2" fill="#C4B7F2"/>
<rect x="68" y="187" width="4" height="4" rx="2" fill="#C4B7F2"/>
<rect x="85" y="187" width="4" height="4" rx="2" fill="#C4B7F2"/>
<rect x="102" y="187" width="4" height="4" rx="2" fill="#C4B7F2"/>
<rect x="119" y="187" width="4" height="4" rx="2" fill="#C4B7F2"/>
<rect x="136" y="187" width="4" height="4" rx="2" fill="#C4B7F2"/>
<rect x="153" y="187" width="4" height="4" rx="2" fill="#C4B7F2"/>
<rect x="170" y="187" width="4" height="4" rx="2" fill="#C4B7F2"/>
<rect x="187" y="187" width="4" height="4" rx="2" fill="#C4B7F2"/>
<rect y="204" width="4" height="4" rx="2" fill="#C4B7F2"/>
<rect x="17" y="204" width="4" height="4" rx="2" fill="#C4B7F2"/>
<rect x="34" y="204" width="4" height="4" rx="2" fill="#C4B7F2"/>
<rect x="51" y="204" width="4" height="4" rx="2" fill="#C4B7F2"/>
<rect x="68" y="204" width="4" height="4" rx="2" fill="#C4B7F2"/>
<rect x="85" y="204" width="4" height="4" rx="2" fill="#C4B7F2"/>
<rect x="102" y="204" width="4" height="4" rx="2" fill="#C4B7F2"/>
<rect x="119" y="204" width="4" height="4" rx="2" fill="#C4B7F2"/>
<rect x="136" y="204" width="4" height="4" rx="2" fill="#C4B7F2"/>
<rect x="153" y="204" width="4" height="4" rx="2" fill="#C4B7F2"/>
<rect x="170" y="204" width="4" height="4" rx="2" fill="#C4B7F2"/>
<rect x="187" y="204" width="4" height="4" rx="2" fill="#C4B7F2"/>
<rect y="221" width="4" height="4" rx="2" fill="#C4B7F2"/>
<rect x="17" y="221" width="4" height="4" rx="2" fill="#C4B7F2"/>
<rect x="34" y="221" width="4" height="4" rx="2" fill="#C4B7F2"/>
<rect x="51" y="221" width="4" height="4" rx="2" fill="#C4B7F2"/>
<rect x="68" y="221" width="4" height="4" rx="2" fill="#C4B7F2"/>
<rect x="85" y="221" width="4" height="4" rx="2" fill="#C4B7F2"/>
<rect x="102" y="221" width="4" height="4" rx="2" fill="#C4B7F2"/>
<rect x="119" y="221" width="4" height="4" rx="2" fill="#C4B7F2"/>
<rect x="136" y="221" width="4" height="4" rx="2" fill="#C4B7F2"/>
<rect x="153" y="221" width="4" height="4" rx="2" fill="#C4B7F2"/>
<rect x="170" y="221" width="4" height="4" rx="2" fill="#C4B7F2"/>
<rect x="187" y="221" width="4" height="4" rx="2" fill="#C4B7F2"/>
<rect x="204" width="4" height="4" rx="2" fill="#C4B7F2"/>
<rect x="221" width="4" height="4" rx="2" fill="#C4B7F2"/>
<rect x="204" y="17" width="4" height="4" rx="2" fill="#C4B7F2"/>
<rect x="221" y="17" width="4" height="4" rx="2" fill="#C4B7F2"/>
<rect x="204" y="34" width="4" height="4" rx="2" fill="#C4B7F2"/>
<rect x="221" y="34" width="4" height="4" rx="2" fill="#C4B7F2"/>
<rect x="204" y="51" width="4" height="4" rx="2" fill="#C4B7F2"/>
<rect x="221" y="51" width="4" height="4" rx="2" fill="#C4B7F2"/>
<rect x="204" y="68" width="4" height="4" rx="2" fill="#C4B7F2"/>
<rect x="221" y="68" width="4" height="4" rx="2" fill="#C4B7F2"/>
<rect x="204" y="85" width="4" height="4" rx="2" fill="#C4B7F2"/>
<rect x="221" y="85" width="4" height="4" rx="2" fill="#C4B7F2"/>
<rect x="204" y="102" width="4" height="4" rx="2" fill="#C4B7F2"/>
<rect x="221" y="102" width="4" height="4" rx="2" fill="#C4B7F2"/>
<rect x="204" y="119" width="4" height="4" rx="2" fill="#C4B7F2"/>
<rect x="221" y="119" width="4" height="4" rx="2" fill="#C4B7F2"/>
<rect x="204" y="136" width="4" height="4" rx="2" fill="#C4B7F2"/>
<rect x="221" y="136" width="4" height="4" rx="2" fill="#C4B7F2"/>
<rect x="204" y="153" width="4" height="4" rx="2" fill="#C4B7F2"/>
<rect x="221" y="153" width="4" height="4" rx="2" fill="#C4B7F2"/>
<rect x="204" y="170" width="4" height="4" rx="2" fill="#C4B7F2"/>
<rect x="221" y="170" width="4" height="4" rx="2" fill="#C4B7F2"/>
<rect x="204" y="187" width="4" height="4" rx="2" fill="#C4B7F2"/>
<rect x="221" y="187" width="4" height="4" rx="2" fill="#C4B7F2"/>
<rect x="204" y="204" width="4" height="4" rx="2" fill="#C4B7F2"/>
<rect x="221" y="204" width="4" height="4" rx="2" fill="#C4B7F2"/>
<rect x="204" y="221" width="4" height="4" rx="2" fill="#C4B7F2"/>
<rect x="221" y="221" width="4" height="4" rx="2" fill="#C4B7F2"/>
</svg>
